<?xml version="1.0" encoding="UTF-8"?>
<svg version="1.1" xmlns="http://www.w3.org/2000/svg" width="800" height="311">
<path d="M0 0 C0.64453125 0.18191895 1.2890625 0.36383789 1.953125 0.55126953 C14.74369264 4.18761231 28.60888488 9.6310195 39 18 C39.94875 18.69996094 40.8975 19.39992188 41.875 20.12109375 C60.08481534 33.61911937 73.72757446 49.82462566 84 70 C84.32629395 70.63776367 84.65258789 71.27552734 84.98876953 71.93261719 C100.88322885 103.68894853 101.86566014 143.15439083 90.98168945 176.6315918 C86.30127823 190.18245206 80.03653586 202.8211125 71 214 C70.58347168 214.5165918 70.16694336 215.03318359 69.73779297 215.56542969 C59.44577135 228.2470066 48.41522691 238.68578005 35 248 C33.92298828 248.77150391 33.92298828 248.77150391 32.82421875 249.55859375 C14.69560918 261.81851818 -8.49927142 266.92375158 -30 268 C-31.16917969 268.05929687 -32.33835938 268.11859375 -33.54296875 268.1796875 C-42.44013851 268.37863043 -51.20035868 267.18031117 -60 266 C-60 266.66 -60 267.32 -60 268 C-60.66 268 -61.32 268 -62 268 C-62 267.34 -62 266.68 -62 266 C-62.62865967 265.81937012 -63.25731934 265.63874023 -63.9050293 265.45263672 C-85.88668238 259.08714567 -85.88668238 259.08714567 -95.57421875 254.06640625 C-98.16865741 252.73170521 -98.16865741 252.73170521 -102 253 C-102 252.01 -102 251.02 -102 250 C-102.71027344 249.75121094 -103.42054687 249.50242187 -104.15234375 249.24609375 C-107.32095991 247.85955252 -109.79345877 246.13061563 -112.5625 244.0625 C-113.49191406 243.37285156 -114.42132813 242.68320312 -115.37890625 241.97265625 C-116.99481714 240.75650871 -118.60751425 239.53606054 -120.21484375 238.30859375 C-121.97061497 236.94464693 -121.97061497 236.94464693 -124 236 C-124.804375 235.030625 -125.60875 234.06125 -126.4375 233.0625 C-128.8318759 229.90829594 -128.8318759 229.90829594 -132 228 C-133.00187056 226.78461604 -133.95715355 225.5300237 -134.875 224.25 C-136.66847383 221.79113415 -138.46626748 219.45004348 -140.4375 217.125 C-151.24059766 204.19557835 -165 183.49086888 -165 166 C-165.99 165.67 -166.98 165.34 -168 165 C-167.34 165 -166.68 165 -166 165 C-166.57344937 162.13275314 -166.8614515 161.1385485 -169 159 C-168.34 159 -167.68 159 -167 159 C-167.14147461 158.3915625 -167.28294922 157.783125 -167.42871094 157.15625 C-169.03766607 149.46493551 -169.30823913 141.93222743 -169.26074219 134.10253906 C-169.25001513 132.00296157 -169.26070107 129.90423931 -169.2734375 127.8046875 C-169.28032293 120.00763059 -168.76942539 112.60973837 -167 105 C-167.66 105 -168.32 105 -169 105 C-169 104.34 -169 103.68 -169 103 C-168.01 103 -167.02 103 -166 103 C-166 101.68 -166 100.36 -166 99 C-166.66 98.67 -167.32 98.34 -168 98 C-167.01 98 -166.02 98 -165 98 C-164.4254048 94.26513121 -164 90.78706732 -164 87 C-163.03630076 85.31208367 -162.02949303 83.64861211 -161 82 C-160.22334282 80.19920162 -159.44855676 78.39736764 -158.70532227 76.58251953 C-153.41205406 63.70498318 -146.08413596 52.56217637 -137 42 C-136.20207031 41.05640625 -135.40414062 40.1128125 -134.58203125 39.140625 C-127.48512541 30.9584512 -118.77293693 21.88646846 -109 17 C-108.34 16.01 -107.68 15.02 -107 14 C-105.35663781 13.23129708 -103.70607619 12.47360377 -102.02001953 11.80371094 C-99.93762161 10.97518133 -97.90807266 10.06711947 -95.87109375 9.1328125 C-70.66315195 -2.31300153 -70.66315195 -2.31300153 -61.16015625 -2.859375 C-58.8208297 -2.97955049 -58.8208297 -2.97955049 -55.81713867 -3.49389648 C-37.68752842 -5.89764973 -17.50202159 -5.28272824 0 0 Z M-112 51 C-112.65742187 51.60199219 -113.31484375 52.20398438 -113.9921875 52.82421875 C-118.44856218 57.07262928 -121.76489805 61.77406609 -125 67 C-124.34 67 -123.68 67 -123 67 C-123 67.66 -123 68.32 -123 69 C-124.485 68.505 -124.485 68.505 -126 68 C-142.84450006 93.66780961 -148.66636575 124.85966861 -142.80029297 154.99316406 C-136.3522239 184.82597209 -119.31579263 210.7213987 -93.71484375 227.71875 C-70.4084326 242.4058342 -40.49822918 248.44894253 -13.4375 242.375 C-4.65523847 240.25196824 3.91976747 237.04011626 12 233 C12 232.34 12 231.68 12 231 C12.72832031 230.8865625 13.45664063 230.773125 14.20703125 230.65625 C23.0541015 228.57749783 30.92219579 221.46574916 37 215 C37 214.34 37 213.68 37 213 C37.5775 212.938125 38.155 212.87625 38.75 212.8125 C41.92448483 211.66615826 43.12848575 209.74043158 45 207 C45 206.34 45 205.68 45 205 C45.9590625 204.566875 45.9590625 204.566875 46.9375 204.125 C49.15206079 203.17176549 49.15206079 203.17176549 50 201 C51.01898604 199.62363045 52.04021152 198.24891846 53.0625 196.875 C71.19326156 171.00050455 76.01870899 140.16293025 71.05859375 109.37109375 C68.68264946 95.66026661 68.68264946 95.66026661 62 84 C61.85433594 83.41605469 61.70867187 82.83210938 61.55859375 82.23046875 C60.82722972 79.31012708 59.5036356 76.95164564 58.0625 74.3125 C57.53785156 73.33925781 57.01320312 72.36601563 56.47265625 71.36328125 C55.21800295 68.89125502 55.21800295 68.89125502 53 68 C52.61521484 66.92685547 52.61521484 66.92685547 52.22265625 65.83203125 C50.62976343 62.14242327 48.17184505 59.55949408 45.4375 56.6875 C44.90318359 56.11862061 44.36886719 55.54974121 43.81835938 54.96362305 C35.89391979 46.1499657 35.89391979 46.1499657 26 40 C25.34 40.33 24.68 40.66 24 41 C23.938125 40.401875 23.87625 39.80375 23.8125 39.1875 C21.98285351 34.26152869 13.97648989 31.79573943 9.4609375 29.5546875 C-33.23413053 10.37563888 -78.22001282 19.92029393 -112 51 Z " fill="#FBFBFB" transform="translate(186,22)"/>
<path d="M0 0 C3.8615347 2.99885141 6.77003303 6.19194732 8 11 C7.99355469 11.68191406 7.98710937 12.36382812 7.98046875 13.06640625 C8.00215886 15.63017754 8.20341451 17.55316497 9 20 C10.91558855 21.81699169 10.91558855 21.81699169 13.39453125 23.3203125 C14.75312256 24.2167749 14.75312256 24.2167749 16.13916016 25.13134766 C17.0832373 25.74800293 18.02731445 26.3646582 19 27 C20.77886783 28.2545836 22.55365446 29.51497482 24.32421875 30.78125 C26.11113241 32.02205365 27.89889533 33.26163516 29.6875 34.5 C30.58533203 35.14453125 31.48316406 35.7890625 32.40820312 36.453125 C37.64657899 40.1304055 37.64657899 40.1304055 43.84375 40.95703125 C44.8853125 40.64121094 45.926875 40.32539062 47 40 C54.59215976 38.62281753 60.24830233 38.91405882 67 43 C71.83664915 47.22707147 74.67185948 51.80635335 75.3359375 58.26953125 C75.42498783 66.34639623 75.2497968 72.58758343 69.46875 78.58984375 C65.61461219 82 65.61461219 82 63 82 C62.97093388 86.56248659 62.95317887 91.1249493 62.9375 95.6875 C62.92912109 96.98107422 62.92074219 98.27464844 62.91210938 99.60742188 C62.90888672 100.85458984 62.90566406 102.10175781 62.90234375 103.38671875 C62.89710693 104.53358154 62.89187012 105.68044434 62.88647461 106.86206055 C62.98776612 112.34825605 62.98776612 112.34825605 65.7421875 116.80859375 C66.79792969 117.61490234 66.79792969 117.61490234 67.875 118.4375 C72.68256978 122.43664123 74.82364542 126.07193702 75.875 132.25 C76.40116004 138.75026886 74.72265041 145.1526748 70.75 150.375 C65.32620878 155.55225525 59.79187621 158.2177728 52.19140625 158.17578125 C49.91579601 157.99324567 47.93947833 157.50933484 45.75 156.875 C41.65398958 155.91926424 41.34779148 155.95896579 38 158 C36.48787433 159.00165526 34.99424202 160.03154135 33.515625 161.08203125 C32.66226563 161.68466797 31.80890625 162.28730469 30.9296875 162.90820312 C30.04539063 163.53662109 29.16109375 164.16503906 28.25 164.8125 C26.50663339 166.05018683 24.76185885 167.28589307 23.015625 168.51953125 C22.17362549 169.11757568 21.33162598 169.71562012 20.46411133 170.33178711 C18.1847191 171.87494445 15.86592516 173.2133118 13.46484375 174.5546875 C10.58804472 176.32449542 10.09332372 176.77434728 8.73828125 180.05078125 C8.59777344 181.12714844 8.45726562 182.20351562 8.3125 183.3125 C7.2695243 189.07494074 6.13598932 193.69432907 2 198 C-3.81208566 201.95962808 -9.99318316 203.67807905 -17 203 C-23.47128387 200.6541596 -28.22353455 197.78271273 -32 192 C-34.31852772 187.03172631 -34.21472253 182.36806314 -34 177 C-35.093125 176.938125 -36.18625 176.87625 -37.3125 176.8125 C-38.529375 176.544375 -39.74625 176.27625 -41 176 C-41.42152344 175.26136719 -41.84304687 174.52273437 -42.27734375 173.76171875 C-44.60965389 170.02261837 -47.5651175 168.30755851 -51.25 166 C-52.54763441 165.16784968 -53.84451265 164.33451902 -55.140625 163.5 C-55.7804834 163.09483154 -56.4203418 162.68966309 -57.07958984 162.2722168 C-59.03735028 160.97525651 -60.87892168 159.57286964 -62.7421875 158.14453125 C-65.90781616 155.52579311 -65.90781616 155.52579311 -69.875 156.6875 C-70.54402344 156.91050781 -71.21304688 157.13351563 -71.90234375 157.36328125 C-78.2299688 159.28395701 -84.08789855 158.2184217 -89.921875 155.33203125 C-94.34304971 152.49815798 -97.08967426 148.86202991 -99.375 144.1875 C-100.96818745 136.06224401 -100.66532071 128.0970091 -96 121 C-94.63564883 120.03352634 -93.27103565 119.06742252 -91.90625 118.1015625 C-89.07217892 115.7165202 -88.10861127 114.46469803 -87.25585938 110.81616211 C-86.98964327 107.04468263 -86.94275274 103.34272717 -87 99.5625 C-86.98839844 98.25861328 -86.97679688 96.95472656 -86.96484375 95.61132812 C-86.94136113 92.40595077 -86.9541823 89.20501189 -87 86 C-87.66 85.67 -88.32 85.34 -89 85 C-89.61875 83.948125 -89.61875 83.948125 -90.25 82.875 C-91.73310736 80.43846648 -93.1609472 78.64911877 -95.0625 76.5625 C-99.76960573 71.10786383 -100.47179226 65.87803545 -100.30859375 58.8125 C-99.62708722 52.60130125 -97.25509394 47.82147273 -92.6875 43.5625 C-86.61598506 38.94147383 -81.07865855 38.7938219 -73.74609375 39.61328125 C-71 40 -71 40 -68.27075195 40.76733398 C-63.92229278 41.07666306 -61.42379681 39.41842585 -57.921875 37.109375 C-57.26922668 36.69012756 -56.61657837 36.27088013 -55.94415283 35.83892822 C-54.57007424 34.94667635 -53.20204586 34.04504624 -51.83984375 33.13476562 C-49.76445857 31.75958049 -47.65920894 30.4424968 -45.546875 29.125 C-38.42233045 24.71115207 -38.42233045 24.71115207 -33.70947266 18.02685547 C-33.15259305 15.16093604 -33.15259305 15.16093604 -33.12646484 12.45556641 C-32.9077201 8.20820224 -30.79965123 5.09435136 -28 2 C-19.07189177 -5.11763698 -9.91816758 -5.86073539 0 0 Z M-57 55 C-58.3539621 56.15337907 -58.3539621 56.15337907 -58.45703125 59.25 C-58.37387639 63.17921656 -58.37387639 63.17921656 -55.32421875 65.625 C-54.12888177 66.44196415 -52.915254 67.23261415 -51.6875 68 C-51.05537598 68.41862305 -50.42325195 68.83724609 -49.77197266 69.26855469 C-48.48046829 70.11958877 -47.18222821 70.96048933 -45.87744141 71.79101562 C-44.14431885 72.90706542 -42.45075285 74.08391236 -40.76171875 75.265625 C-37.03037526 77.90363722 -37.03037526 77.90363722 -33 80 C-31.05234642 79.15956628 -31.05234642 79.15956628 -29 78 C-27.95453003 77.65884155 -27.95453003 77.65884155 -26.88793945 77.31079102 C-24.2106237 76.19558206 -22.8332567 75.27825775 -21 73 C-19.98692136 68.07104836 -19.97460621 63.33152467 -20.12182617 58.31616211 C-20.187441 55.939637 -20.18344717 53.57061518 -20.16992188 51.19335938 C-20.1859894 49.67963823 -20.20603685 48.165953 -20.23046875 46.65234375 C-20.22975876 45.94496567 -20.22904877 45.23758759 -20.22831726 44.5087738 C-20.37244032 40.74614377 -20.75191802 39.253731 -23.4230957 36.52172852 C-31.15112055 31.95813033 -50.18996113 50.00537383 -57 55 Z M-2.5949707 37.5402832 C-6.93557656 41.97958926 -6.00794155 48.12517408 -6.03637695 54.01635742 C-6.06236368 56.30051784 -6.17867747 58.56872058 -6.29882812 60.84960938 C-6.40945926 65.19398812 -6.24556486 68.8043832 -5 73 C-1.39035573 76.4209802 2.3526157 78.30354469 7 80 C12.36032891 76.70834171 17.69315485 73.37720467 23 70 C23.91523438 69.42121094 24.83046875 68.84242187 25.7734375 68.24609375 C29.2442031 65.87848971 31.27199907 64.22652309 32.5 60.125 C32.665 59.09375 32.83 58.0625 33 57 C30.23924132 54.06071651 27.50181155 51.90711832 24.0625 49.8125 C20.83396998 47.81471162 17.65729492 45.78558346 14.56640625 43.58203125 C13.9933374 43.17428467 13.42026855 42.76653809 12.82983398 42.34643555 C11.19745392 41.17690992 9.57123144 39.99880411 7.9453125 38.8203125 C2.79068005 35.63280275 2.79068005 35.63280275 -2.5949707 37.5402832 Z M33.31640625 80.9921875 C32.38892578 81.61480469 31.46144531 82.23742187 30.50585938 82.87890625 C29.53455078 83.53761719 28.56324219 84.19632812 27.5625 84.875 C26.59505859 85.52597656 25.62761719 86.17695313 24.63085938 86.84765625 C22.83137175 88.05896992 21.03314922 89.27216647 19.23657227 90.48779297 C17.49542576 91.66502924 15.74878611 92.83414259 14 94 C13.42251197 95.96361864 13.42251197 95.96361864 13.3125 98.125 C13.209375 99.40375 13.10625 100.6825 13 102 C13.97839844 102.65226562 14.95679688 103.30453125 15.96484375 103.9765625 C16.91170044 104.60824341 16.91170044 104.60824341 17.87768555 105.25268555 C19.25435289 106.16986549 20.6321273 107.08538586 22.01098633 107.99926758 C24.9891283 109.97566769 27.94702807 111.9622973 30.859375 114.03515625 C31.62765625 114.58042969 32.3959375 115.12570313 33.1875 115.6875 C34.16783203 116.40486328 34.16783203 116.40486328 35.16796875 117.13671875 C36.94436999 118.15166154 36.94436999 118.15166154 38.86328125 117.89453125 C42.0006107 116.58109717 44.35833447 115.16928089 47 113 C47.83097174 109.6957399 47.83097174 109.6957399 47.578125 105.96875 C47.55344147 104.95935364 47.55344147 104.95935364 47.52825928 103.92956543 C47.48550909 102.510292 47.42741302 101.09140831 47.35498047 99.67333984 C47.25030992 97.50641611 47.20975736 95.34483563 47.17578125 93.17578125 C47.12623335 91.79412788 47.07297115 90.41260168 47.015625 89.03125 C46.94263184 87.15276367 46.94263184 87.15276367 46.86816406 85.23632812 C46.26476723 81.74193332 46.26476723 81.74193332 43.06152344 79.56054688 C38.42231844 77.19581016 37.45031664 78.20229744 33.31640625 80.9921875 Z M-71 82 C-72.59154498 87.6629391 -72.14694797 93.78684007 -72.125 99.625 C-72.12886719 100.66140625 -72.13273437 101.6978125 -72.13671875 102.765625 C-72.13542969 103.76335937 -72.13414063 104.76109375 -72.1328125 105.7890625 C-72.13168457 106.69350098 -72.13055664 107.59793945 -72.12939453 108.52978516 C-72.00625211 110.88064364 -71.82334194 112.79498548 -71 115 C-67.33809128 117.44742463 -67.33809128 117.44742463 -63.09423828 117.74707031 C-58.6519065 116.1623728 -54.81535321 113.29701756 -50.875 110.75 C-49.95589844 110.17636719 -49.03679687 109.60273438 -48.08984375 109.01171875 C-47.21199219 108.44582031 -46.33414063 107.87992188 -45.4296875 107.296875 C-44.62772949 106.78479492 -43.82577148 106.27271484 -42.99951172 105.74511719 C-40.61614421 103.66498154 -39.87820588 102.01462494 -39 99 C-38.96458233 96.3426821 -38.96458233 96.3426821 -40 94 C-41.91475218 92.4656953 -41.91475218 92.4656953 -44.3125 91.4375 C-47.89378944 89.62717787 -50.19993653 87.88756545 -53 85 C-61.46849317 78.54512159 -61.46849317 78.54512159 -71 82 Z M-33 117 C-32.67 117.99 -32.34 118.98 -32 120 C-32.66 120 -33.32 120 -34 120 C-34.33 119.34 -34.66 118.68 -35 118 C-35.55985596 118.38333496 -36.11971191 118.76666992 -36.6965332 119.16162109 C-39.23505994 120.89960237 -41.77377781 122.63730424 -44.3125 124.375 C-45.19357422 124.97828125 -46.07464844 125.5815625 -46.98242188 126.203125 C-47.82998047 126.78320312 -48.67753906 127.36328125 -49.55078125 127.9609375 C-50.33106689 128.49509277 -51.11135254 129.02924805 -51.9152832 129.57958984 C-53.60338862 130.72977105 -55.3003722 131.8669148 -57 133 C-58.39647944 137.00507611 -58.39647944 137.00507611 -58 141 C-56.41190594 142.77732053 -56.41190594 142.77732053 -54.20703125 144.2734375 C-53.38702637 144.87406006 -52.56702148 145.47468262 -51.72216797 146.09350586 C-50.82385254 146.72264893 -49.92553711 147.35179199 -49 148 C-47.61192139 148.9736853 -47.61192139 148.9736853 -46.19580078 149.96704102 C-43.2898466 151.97781584 -40.36731008 153.96167176 -37.4375 155.9375 C-36.42880859 156.62134766 -35.42011719 157.30519531 -34.38085938 158.00976562 C-31.92240936 159.67591896 -29.46211313 161.33926674 -27 163 C-23.81765895 161.24545615 -23.81765895 161.24545615 -21 159 C-20.70829723 154.22789037 -20.68592401 149.45302387 -20.64990234 144.67285156 C-20.63337287 143.06463113 -20.60612211 141.45648326 -20.56787109 139.84863281 C-20.51295793 137.52890959 -20.49120579 135.21091164 -20.4765625 132.890625 C-20.45389313 132.17585999 -20.43122375 131.46109497 -20.40786743 130.72467041 C-20.42443335 126.78900625 -20.84665594 125.18401287 -23.39990234 122.12011719 C-24.25793457 121.42047852 -25.1159668 120.72083984 -26 120 C-26.70125 119.401875 -27.4025 118.80375 -28.125 118.1875 C-30.05250785 116.73247396 -30.05250785 116.73247396 -33 117 Z M0.3125 119.625 C-0.86892578 120.38683594 -0.86892578 120.38683594 -2.07421875 121.1640625 C-5.13856402 124.08544643 -4.95694372 127.2486406 -5.19287109 131.36572266 C-5.26422435 134.7297042 -5.32175313 138.09245964 -5.35009766 141.45703125 C-5.36674221 142.90608688 -5.39414315 144.35505765 -5.43212891 145.80371094 C-5.48678415 147.90342297 -5.50873758 150.00123617 -5.5234375 152.1015625 C-5.54325684 153.35275879 -5.56307617 154.60395508 -5.58349609 155.89306641 C-5.30673696 159.16294988 -5.30673696 159.16294988 -2.65478516 160.99365234 C0.04392157 162.33645028 0.04392157 162.33645028 3 161 C4.18067464 160.38014582 5.34705533 159.73252267 6.5 159.0625 C7.0878125 158.72347656 7.675625 158.38445312 8.28125 158.03515625 C9.88332322 157.07027124 11.44390096 156.03739936 13 155 C13 154.34 13 153.68 13 153 C13.53496094 152.91621094 14.06992188 152.83242187 14.62109375 152.74609375 C17.8595126 151.73043201 20.26732272 149.97790649 23.0625 148.0625 C24.62677734 146.99708984 24.62677734 146.99708984 26.22265625 145.91015625 C27.13917969 145.27980469 28.05570313 144.64945313 29 144 C29.99 143.34 30.98 142.68 32 142 C32.15456677 136.25910125 32.15456677 136.25910125 29.55078125 131.39453125 C27.74748623 130.12322782 25.94165066 129.04726827 24 128 C19.59171153 125.43621349 15.51735309 122.52885264 11.40234375 119.5234375 C6.79666942 116.60276597 4.88762498 116.55475084 0.3125 119.625 Z " fill="#FBFBFB" transform="translate(163,59)"/>
<path d="M0 0 C34.82142857 0 34.82142857 0 51 2 C51 2.66 51 3.32 51 4 C51.7425 4.10441406 52.485 4.20882812 53.25 4.31640625 C58.74688167 5.6828186 62.61921242 9.81855918 65.58984375 14.51171875 C69.97141479 23.0081565 71.70155166 32.2234716 69.328125 41.67578125 C68.80518489 43.18293412 68.25157895 44.68010234 67.65625 46.16015625 C66.83202184 48.14537563 66.83202184 48.14537563 67 51 C64.9375 52.8125 64.9375 52.8125 62 55 C61.50371094 55.47824219 61.00742187 55.95648438 60.49609375 56.44921875 C51.4523404 65.10071292 39.97923687 66.06162159 28 66 C24.535 65.505 24.535 65.505 21 65 C21 76.22 21 87.44 21 99 C17.720625 99.020625 14.44125 99.04125 11.0625 99.0625 C10.02746338 99.071604 8.99242676 99.08070801 7.92602539 99.09008789 C7.11641357 99.09258545 6.30680176 99.09508301 5.47265625 99.09765625 C4.22367554 99.10551147 4.22367554 99.10551147 2.94946289 99.11352539 C1 99 1 99 0 98 C-0.14115161 95.32941149 -0.04247107 92.67567762 0 90 C-0.66 89.67 -1.32 89.34 -2 89 C-1.34 89 -0.68 89 0 89 C0 59.63 0 30.26 0 0 Z M21 19 C21 28.57 21 38.14 21 48 C23.68125 48.061875 26.3625 48.12375 29.125 48.1875 C30.37434326 48.22846802 30.37434326 48.22846802 31.64892578 48.27026367 C37.68284246 48.33721121 41.7632564 47.05538601 46.3125 42.875 C48.56118766 39.04390251 49.04340072 35.41819314 49 31 C48.67 30.34 48.34 29.68 48 29 C47.34 29 46.68 29 46 29 C46.2475 28.4225 46.495 27.845 46.75 27.25 C47.27843182 24.85659149 47.27843182 24.85659149 45.375 22.875 C40.19528866 18.78575421 35.51523265 18.73816452 29.1875 18.875 C26.485625 18.91625 23.78375 18.9575 21 19 Z " fill="#FCFCFC" transform="translate(326,51)"/>
<path d="M0 0 C0.71671875 -0.01224609 1.4334375 -0.02449219 2.171875 -0.03710938 C10.10492298 -0.05898359 10.10492298 -0.05898359 13.25 2.1875 C14.84940178 5.2342943 15.88663724 8.41761725 16.9375 11.6875 C17.5200148 13.42867116 18.10705119 15.16833801 18.69921875 16.90625 C19.07566528 18.06543945 19.07566528 18.06543945 19.4597168 19.24804688 C20.18107189 21.37723971 20.18107189 21.37723971 22.25 23.1875 C22.25 24.5075 22.25 25.8275 22.25 27.1875 C22.74769074 29.19956912 22.74769074 29.19956912 23.4921875 31.2265625 C23.88470703 32.34417969 23.88470703 32.34417969 24.28515625 33.484375 C24.56230469 34.25265625 24.83945312 35.0209375 25.125 35.8125 C25.39441406 36.58851563 25.66382813 37.36453125 25.94140625 38.1640625 C27.43495794 42.5664897 27.43495794 42.5664897 30.25 46.1875 C30.7421875 47.96484375 30.7421875 47.96484375 31.125 50.125 C32.25060248 55.69854779 34.21096893 60.89195814 36.25 66.1875 C36.91 65.5275 37.57 64.8675 38.25 64.1875 C38.25 62.8675 38.25 61.5475 38.25 60.1875 C38.91 59.8575 39.57 59.5275 40.25 59.1875 C40.20875 58.40375 40.1675 57.62 40.125 56.8125 C40.25 54.1875 40.25 54.1875 42.25 52.1875 C43.18317966 49.91699616 44.03855987 47.66471089 44.8515625 45.3515625 C45.0928891 44.6758017 45.3342157 44.00004089 45.58285522 43.30380249 C46.09160658 41.87411574 46.5974449 40.44338954 47.10058594 39.01171875 C47.87065275 36.82484552 48.65340358 34.64281384 49.4375 32.4609375 C49.93046134 31.07058663 50.42267372 29.67996993 50.9140625 28.2890625 C51.2655687 27.31231064 51.2655687 27.31231064 51.62417603 26.31582642 C52.76924671 23.02755801 53.25 20.72839363 53.25 17.1875 C53.91 17.1875 54.57 17.1875 55.25 17.1875 C55.44335938 16.53523438 55.63671875 15.88296875 55.8359375 15.2109375 C57.23640448 10.5103602 58.66208726 5.82909109 60.25 1.1875 C75.45689655 -0.74353448 75.45689655 -0.74353448 81.25 1.1875 C80.50462238 7.70423008 77.97424544 13.49228932 75.6015625 19.55078125 C75.12976563 20.78634766 75.12976563 20.78634766 74.6484375 22.046875 C74.35630371 22.79420898 74.06416992 23.54154297 73.76318359 24.31152344 C73.0067004 26.25704163 73.0067004 26.25704163 74.25 28.1875 C73.26 28.1875 72.27 28.1875 71.25 28.1875 C71.14888916 29.00017334 71.04777832 29.81284668 70.94360352 30.65014648 C70.10891618 34.90702252 68.69962778 38.74300696 67.15234375 42.78515625 C66.84201202 43.60890244 66.5316803 44.43264862 66.21194458 45.28135681 C65.20903559 47.93958601 64.19839672 50.59479943 63.1875 53.25 C62.50075468 55.065579 61.81447583 56.88133452 61.12866211 58.69726562 C59.46947412 63.08654442 57.80410472 67.4734395 56.13562012 71.85919189 C55.34236927 73.94465985 54.5502115 76.03053686 53.75878906 78.11669922 C51.59841017 83.81052341 49.43100931 89.50154602 47.25 95.1875 C41.64 95.1875 36.03 95.1875 30.25 95.1875 C30.25 95.8475 30.25 96.5075 30.25 97.1875 C27.8125 96.4375 27.8125 96.4375 25.25 95.1875 C24.4375 93.0625 24.4375 93.0625 24.25 91.1875 C23.59 91.1875 22.93 91.1875 22.25 91.1875 C22.146875 90.218125 22.04375 89.24875 21.9375 88.25 C21.29432645 83.75697334 20.10993563 79.33453351 18.25 75.1875 C17.59 74.8575 16.93 74.5275 16.25 74.1875 C16.745 72.7025 16.745 72.7025 17.25 71.1875 C15.765 70.6925 15.765 70.6925 14.25 70.1875 C14.25 68.8675 14.25 67.5475 14.25 66.1875 C13.43576551 63.71574252 12.57291248 61.32156813 11.625 58.90234375 C11.35864746 58.20484512 11.09229492 57.5073465 10.81787109 56.78871155 C9.96817024 54.56501342 9.10991587 52.34476606 8.25 50.125 C7.39066915 47.90145739 6.53335415 45.6772358 5.68212891 43.45057678 C5.15283211 42.06640601 4.61881026 40.68403084 4.07958984 39.30369568 C2.98259299 36.438357 2.25 34.28553901 2.25 31.1875 C1.26 30.8575 0.27 30.5275 -0.75 30.1875 C-0.42 29.8575 -0.09 29.5275 0.25 29.1875 C-0.41 28.5275 -1.07 27.8675 -1.75 27.1875 C-1.75 25.8675 -1.75 24.5475 -1.75 23.1875 C-2.30727289 21.09898788 -2.30727289 21.09898788 -3.125 19.0625 C-3.38023437 18.37929687 -3.63546875 17.69609375 -3.8984375 16.9921875 C-4.71599396 14.99634671 -4.71599396 14.99634671 -6.75 13.1875 C-6.42 12.5275 -6.09 11.8675 -5.75 11.1875 C-6.41 10.8575 -7.07 10.5275 -7.75 10.1875 C-8.19921875 8.15625 -8.19921875 8.15625 -8.4375 5.6875 C-8.52386719 4.8728125 -8.61023438 4.058125 -8.69921875 3.21875 C-8.71597656 2.5484375 -8.73273438 1.878125 -8.75 1.1875 C-6.73100129 -0.83149871 -2.76222841 0.00243154 0 0 Z " fill="#FCFCFC" transform="translate(331.75,164.8125)"/>
<path d="M0 0 C0.76183594 0.17273438 1.52367187 0.34546875 2.30859375 0.5234375 C11.05310514 2.79435614 15.58275673 9.58782043 20.00390625 17.08203125 C25.15095459 26.99262236 24.8421097 39.45991479 22 50 C18.9902507 58.68923438 13.62662175 64.80200246 5.62890625 69.34765625 C-5.76956091 74.71051011 -17.23420634 73.76301071 -29 70 C-31.02156704 69.04435012 -33.02966574 68.05725253 -35 67 C-37.73572585 66.30092586 -37.73572585 66.30092586 -40 66 C-40.061875 65.21625 -40.12375 64.4325 -40.1875 63.625 C-40.455625 62.75875 -40.72375 61.8925 -41 61 C-43.47636012 59.62533375 -43.47636012 59.62533375 -46 59 C-45.34 57.68 -44.68 56.36 -44 55 C-44.99 55 -45.98 55 -47 55 C-47.495 53.515 -47.495 53.515 -48 52 C-47.34 52 -46.68 52 -46 52 C-46.31582031 51.30777344 -46.63164063 50.61554688 -46.95703125 49.90234375 C-50.40752555 40.30040642 -48.984543 28.96660454 -48 19 C-47.34 19 -46.68 19 -46 19 C-44.47570903 17.11997021 -44.47570903 17.11997021 -43 14.75 C-42.484375 13.96109375 -41.96875 13.1721875 -41.4375 12.359375 C-40.17016414 10.27929114 -39.0480542 8.19688285 -38 6 C-37.34 6 -36.68 6 -36 6 C-36 5.01 -36 4.02 -36 3 C-35.195625 2.896875 -34.39125 2.79375 -33.5625 2.6875 C-30.75374815 2.14546017 -28.51919144 1.48735746 -25.875 0.5 C-17.18693009 -2.46915521 -8.74216438 -2.63375551 0 0 Z M-24 20 C-29.16721014 26.42671761 -28.74306136 34.13822737 -28 42 C-26.83176218 48.188764 -24.06790904 51.51581254 -19 55 C-13.90592137 56.69802621 -9.09813752 56.8718259 -4.25 54.5 C-0.31895987 51.99025127 1.56015876 48.35529617 3 44 C3 43.01 3 42.02 3 41 C2.34 40.67 1.68 40.34 1 40 C1.33 38.68 1.66 37.36 2 36 C2.33 36.99 2.66 37.98 3 39 C3.47914307 31.75961584 3.34593254 26.03684145 -1 20 C-5.32854365 15.93379233 -9.78222926 15.63898038 -15.49609375 15.73046875 C-19.32593552 16.14272941 -21.2259836 17.35807962 -24 20 Z " fill="#FCFCFC" transform="translate(625,80)"/>
<path d="M0 0 C7.89365494 4.63155972 11.94640801 11.24358124 14.57055664 20.08496094 C15.02331652 22.26943168 15.13325916 24.23953545 15.13671875 26.46875 C15.13800781 27.26345703 15.13929688 28.05816406 15.140625 28.87695312 C15.13675781 29.69744141 15.13289063 30.51792969 15.12890625 31.36328125 C15.13277344 32.19537109 15.13664062 33.02746094 15.140625 33.88476562 C15.13057717 40.04911033 15.13057717 40.04911033 14.00390625 41.17578125 C10.90139424 41.2645226 7.82122505 41.2909658 4.71875 41.2734375 C3.78793106 41.27202255 2.85711212 41.2706076 1.89808655 41.26914978 C-1.08750566 41.26353297 -4.07302404 41.25097765 -7.05859375 41.23828125 C-9.07747288 41.23326841 -11.09635318 41.22870513 -13.11523438 41.22460938 C-18.07554947 41.21355808 -23.03580907 41.1962822 -27.99609375 41.17578125 C-27.6361643 45.86665244 -27.6361643 45.86665244 -25.640625 49.953125 C-19.11758698 54.0839188 -12.52766881 54.13012467 -4.99609375 53.17578125 C-0.49299206 51.82359289 3.11019271 49.77159028 7.00390625 47.17578125 C9.19140625 47.55078125 9.19140625 47.55078125 11.00390625 48.17578125 C11.13927254 50.59432571 11.23810904 53.00527908 11.31640625 55.42578125 C11.35830078 56.10769531 11.40019531 56.78960937 11.44335938 57.4921875 C11.53363038 61.21135274 11.35224957 62.80555249 8.765625 65.5546875 C6.32429621 66.98771642 4.20081739 68.04186289 1.50390625 68.86328125 C0.77171875 69.09402344 0.03953125 69.32476562 -0.71484375 69.5625 C-13.03394435 72.874313 -24.9882551 71.64571751 -36.18359375 65.48828125 C-37.46165945 64.72949969 -38.7355066 63.96325915 -39.99609375 63.17578125 C-39.99609375 62.51578125 -39.99609375 61.85578125 -39.99609375 61.17578125 C-40.92421875 61.08296875 -40.92421875 61.08296875 -41.87109375 60.98828125 C-42.57234375 60.72015625 -43.27359375 60.45203125 -43.99609375 60.17578125 C-44.72513461 58.53543932 -45.38264618 56.86276207 -45.99609375 55.17578125 C-46.69734375 54.33015625 -47.39859375 53.48453125 -48.12109375 52.61328125 C-49.99609375 50.17578125 -49.99609375 50.17578125 -49.99609375 46.17578125 C-50.34671875 44.97953125 -50.69734375 43.78328125 -51.05859375 42.55078125 C-51.99609375 39.17578125 -51.99609375 39.17578125 -50.99609375 37.17578125 C-51.65609375 36.84578125 -52.31609375 36.51578125 -52.99609375 36.17578125 C-52.2091205 32.76556382 -51.12489432 29.48692959 -49.99609375 26.17578125 C-50.65609375 25.84578125 -51.31609375 25.51578125 -51.99609375 25.17578125 C-51.33609375 25.17578125 -50.67609375 25.17578125 -49.99609375 25.17578125 C-49.00609375 21.71078125 -49.00609375 21.71078125 -47.99609375 18.17578125 C-48.65609375 17.84578125 -49.31609375 17.51578125 -49.99609375 17.17578125 C-49.35027344 16.56669922 -49.35027344 16.56669922 -48.69140625 15.9453125 C-46.86177999 14.03558739 -45.40880559 12.01384925 -43.87109375 9.86328125 C-33.75954246 -3.26249568 -14.95900045 -7.36559921 0 0 Z M-22.99609375 15.17578125 C-23.63546875 15.44390625 -24.27484375 15.71203125 -24.93359375 15.98828125 C-27.70944998 17.5865015 -28.63146416 19.3100591 -29.99609375 22.17578125 C-29.99609375 23.49578125 -29.99609375 24.81578125 -29.99609375 26.17578125 C-21.41609375 26.17578125 -12.83609375 26.17578125 -3.99609375 26.17578125 C-4.95267136 18.65141355 -4.95267136 18.65141355 -9.8828125 14.2734375 C-14.2101817 12.02576514 -19.45273989 11.63242739 -22.99609375 15.17578125 Z " fill="#FCFCFC" transform="translate(445.99609375,81.82421875)"/>
<path d="M0 0 C4.25827327 3.69513205 7.25274001 7.59937821 9 13 C9.66 13.66 10.32 14.32 11 15 C10.505 15.495 10.505 15.495 10 16 C10.09925967 18.14849146 10.25979502 20.29407074 10.4375 22.4375 C11.13257182 31.9737984 11.08637393 41.50711238 11.0625 51.0625 C11.05970535 52.23726395 11.05970535 52.23726395 11.05685425 53.4357605 C11.04461412 57.95721517 11.02516408 62.47859632 11 67 C7.91674642 67.0582253 4.83363495 67.09367134 1.75 67.125 C0.44095703 67.15013672 0.44095703 67.15013672 -0.89453125 67.17578125 C-1.73886719 67.18222656 -2.58320312 67.18867188 -3.453125 67.1953125 C-4.22817383 67.20578613 -5.00322266 67.21625977 -5.80175781 67.22705078 C-8.25914423 66.97323366 -9.82373013 66.12017286 -12 65 C-14.0649808 65.58632266 -14.0649808 65.58632266 -16 66.8125 C-23.46491702 71.0844154 -31.74398174 70.65120365 -40 69 C-42.3125 67 -42.3125 67 -44 65 C-44.99 64.67 -45.98 64.34 -47 64 C-50.92679188 55.39126396 -51.87165799 48.08518699 -49 39 C-47.32828296 35.00241578 -46.62500944 33.41667296 -43 31 C-41.989375 30.319375 -40.97875 29.63875 -39.9375 28.9375 C-35.5307262 26.39367564 -30.99862726 26.201152 -26 26 C-26 25.34 -26 24.68 -26 24 C-20.39 24.33 -14.78 24.66 -9 25 C-9.4125 23.55625 -9.825 22.1125 -10.25 20.625 C-10.59804688 19.40683594 -10.59804688 19.40683594 -10.953125 18.1640625 C-11.83196438 15.902598 -11.83196438 15.902598 -13.7890625 14.734375 C-20.96013991 12.35246236 -28.11510483 13.86646474 -34.83984375 16.83984375 C-37.48821589 18.26220636 -39.67948188 20.10139426 -42 22 C-42.99 21.67 -43.98 21.34 -45 21 C-46.21993072 5.63226162 -46.21993072 5.63226162 -43.32421875 1.7578125 C-40.08158395 -0.24586311 -37.82448147 -1 -34 -1 C-34 -1.66 -34 -2.32 -34 -3 C-22.79535338 -4.78519629 -10.13104325 -6.06174087 0 0 Z M-29 41 C-31.36139302 43.89461901 -31.36139302 43.89461901 -30.8125 47.5625 C-30.35160238 51.25825752 -30.35160238 51.25825752 -27 53 C-21.38448989 53.82360815 -16.80046221 53.16127999 -12 50 C-9.70366176 46.55549263 -9.45983515 44.06187717 -9 40 C-9.66 40 -10.32 40 -11 40 C-11 39.34 -11 38.68 -11 38 C-17.76083868 37.6259372 -22.85519989 38.03732852 -29 41 Z M-9 62 C-9.33 62.66 -9.66 63.32 -10 64 C-9.34 64 -8.68 64 -8 64 C-8.33 63.34 -8.66 62.68 -9 62 Z " fill="#FCFCFC" transform="translate(780,83)"/>
<path d="M0 0 C23.34140747 -0.67984682 23.34140747 -0.67984682 33.2734375 7.25390625 C38.30011381 12.33744541 40.07047791 18.96449234 40.22119141 25.9362793 C40.24436432 26.91376633 40.26753723 27.89125336 40.29141235 28.89836121 C40.3112619 29.9463942 40.33111145 30.99442719 40.3515625 32.07421875 C40.37471527 33.15379349 40.39786804 34.23336823 40.42172241 35.34565735 C40.46929762 37.62435342 40.51453935 39.90309924 40.55761719 42.18188477 C40.62494421 45.68459752 40.70262551 49.18697782 40.78125 52.68945312 C40.82614422 54.9010291 40.87043595 57.11261741 40.9140625 59.32421875 C40.93796051 60.37832443 40.96185852 61.43243011 40.98648071 62.51847839 C41.0033493 63.48650894 41.0202179 64.45453949 41.03759766 65.4519043 C41.05456696 66.3080986 41.07153625 67.16429291 41.08901978 68.0464325 C41 70 41 70 40 71 C37.55571462 71.26536271 35.13903274 71.46905592 32.6875 71.625 C31.67139648 71.70234375 31.67139648 71.70234375 30.63476562 71.78125 C27.23132333 72.00748077 24.25055604 72.11972881 21 71 C21 70.01 21 69.02 21 68 C20.26136719 68.433125 19.52273438 68.86625 18.76171875 69.3125 C9.86460831 74.19630141 3.01258101 75.63844303 -6.8125 72.8125 C-12.14219155 70.77215297 -15.6755896 68.05511959 -18.8125 63.1875 C-21.3514443 56.37243899 -21.8225163 49.78579961 -19 43 C-16.94608673 40.0326878 -14.73252666 37.36518227 -12 35 C-11.34 35 -10.68 35 -10 35 C-10 34.34 -10 33.68 -10 33 C-1.82179358 30.28531353 11.69334212 25.84667106 20 30 C20 29.01 20 28.02 20 27 C19.34 27 18.68 27 18 27 C18 26.34 18 25.68 18 25 C17.34 24.67 16.68 24.34 16 24 C16.99 24 17.98 24 19 24 C16.32988479 20.6408228 14.16325 18.65971909 9.9375 17.9375 C1.48050641 17.42838333 -6.2967893 21.18743847 -13 26 C-13.99 26 -14.98 26 -16 26 C-16.13517903 23.24835568 -16.23415251 20.50335479 -16.3125 17.75 C-16.3753418 16.58404297 -16.3753418 16.58404297 -16.43945312 15.39453125 C-16.56331483 9.59780349 -16.56331483 9.59780349 -13.703125 6.5625 C-9.07002127 3.88440536 -5.41076652 2 0 2 C0 1.34 0 0.68 0 0 Z M1 46 C-0.69694716 49.13282552 -1.27328522 50.77021651 -0.5 54.25 C1.73443565 56.85684159 3.66153451 57.30711094 7 58 C10.97998393 57.72551835 14.75162174 57.4362837 18 55 C20.60627565 50.90442397 21.449949 47.83695179 21 43 C19.31002987 41.31002987 17.25136714 41.74797246 14.9375 41.6875 C9.55623912 41.75056165 5.22160134 42.49811187 1 46 Z " fill="#FCFCFC" transform="translate(425,189)"/>
<path d="M0 0 C1.27133789 0.00966797 1.27133789 0.00966797 2.56835938 0.01953125 C3.8899707 0.04466797 3.8899707 0.04466797 5.23828125 0.0703125 C6.57729492 0.08384766 6.57729492 0.08384766 7.94335938 0.09765625 C10.14610439 0.12121502 12.34830713 0.15410921 14.55078125 0.1953125 C14.55078125 0.8553125 14.55078125 1.5153125 14.55078125 2.1953125 C15.54078125 2.5253125 16.53078125 2.8553125 17.55078125 3.1953125 C16.56078125 3.1953125 15.57078125 3.1953125 14.55078125 3.1953125 C14.55078125 5.5053125 14.55078125 7.8153125 14.55078125 10.1953125 C15.21078125 10.5253125 15.87078125 10.8553125 16.55078125 11.1953125 C15.89078125 11.1953125 15.23078125 11.1953125 14.55078125 11.1953125 C14.88078125 22.7453125 15.21078125 34.2953125 15.55078125 46.1953125 C16.21078125 46.5253125 16.87078125 46.8553125 17.55078125 47.1953125 C17.88078125 48.1853125 18.21078125 49.1753125 18.55078125 50.1953125 C20.03578125 50.6903125 20.03578125 50.6903125 21.55078125 51.1953125 C21.55078125 51.8553125 21.55078125 52.5153125 21.55078125 53.1953125 C22.96828688 53.08021589 24.38479294 52.95277592 25.80078125 52.8203125 C26.98414063 52.71589844 26.98414063 52.71589844 28.19140625 52.609375 C30.7273145 52.1643315 32.40364009 51.61756412 34.55078125 50.1953125 C36.34082733 47.26978925 36.80919582 45.0310408 36.85375977 41.6262207 C36.87040176 40.72881668 36.88704376 39.83141266 36.90419006 38.90681458 C36.91260422 37.9462767 36.92101837 36.98573883 36.9296875 35.99609375 C36.94668198 35.00530319 36.96367645 34.01451263 36.98118591 32.99369812 C37.03428948 29.8318008 37.0746165 26.6699168 37.11328125 23.5078125 C37.15715742 20.33506198 37.20378514 17.16241494 37.25608826 13.98979187 C37.28813704 12.01559718 37.31499816 10.04131052 37.33631897 8.06697083 C37.34980881 7.17902328 37.36329865 6.29107574 37.37719727 5.3762207 C37.39146507 4.1985186 37.39146507 4.1985186 37.40602112 2.99702454 C37.55078125 1.1953125 37.55078125 1.1953125 38.55078125 0.1953125 C39.8812175 0.0969404 41.21671469 0.06452658 42.55078125 0.0625 C43.35515625 0.06121094 44.15953125 0.05992187 44.98828125 0.05859375 C45.83390625 0.06246094 46.67953125 0.06632813 47.55078125 0.0703125 C48.81921875 0.06451172 48.81921875 0.06451172 50.11328125 0.05859375 C50.91765625 0.05988281 51.72203125 0.06117188 52.55078125 0.0625 C53.29328125 0.06362793 54.03578125 0.06475586 54.80078125 0.06591797 C56.55078125 0.1953125 56.55078125 0.1953125 57.55078125 1.1953125 C57.65022097 3.27606659 57.67877721 5.36023098 57.68017578 7.44335938 C57.68280426 8.42140282 57.68280426 8.42140282 57.68548584 9.41920471 C57.68990329 11.58418403 57.68696676 13.74908229 57.68359375 15.9140625 C57.68426682 17.41239437 57.68523687 18.91072613 57.68649292 20.40905762 C57.68796975 23.55315183 57.68581583 26.69721767 57.68115234 29.84130859 C57.67545505 33.88017789 57.67873414 37.91898074 57.68472481 41.9578476 C57.68833083 45.0529633 57.68719164 48.14806315 57.68459702 51.24317932 C57.68392786 52.73279325 57.68475577 54.2224086 57.68707657 55.71202087 C57.68960378 57.79047485 57.68576158 59.86881981 57.68017578 61.94726562 C57.67938019 63.13227661 57.67858459 64.3172876 57.67776489 65.53820801 C57.55078125 68.1953125 57.55078125 68.1953125 56.55078125 69.1953125 C55.20810712 69.28163124 53.86103803 69.30237723 52.515625 69.29296875 C51.70673828 69.28974609 50.89785156 69.28652344 50.06445312 69.28320312 C49.21431641 69.27482422 48.36417969 69.26644531 47.48828125 69.2578125 C46.63427734 69.25330078 45.78027344 69.24878906 44.90039062 69.24414062 C42.78382462 69.23231623 40.6672944 69.21438019 38.55078125 69.1953125 C38.22078125 67.8753125 37.89078125 66.5553125 37.55078125 65.1953125 C37.00808594 65.54464844 36.46539063 65.89398438 35.90625 66.25390625 C35.19082031 66.70894531 34.47539063 67.16398437 33.73828125 67.6328125 C33.03058594 68.08527344 32.32289063 68.53773438 31.59375 69.00390625 C25.53405327 72.53776381 17.58173027 71.94156691 10.87109375 70.69921875 C4.85962336 68.90792202 1.69812039 65.87948643 -2.19921875 61.0078125 C-4.04104158 56.86371114 -4.19627375 52.68726673 -4.44921875 48.1953125 C-5.10921875 48.1953125 -5.76921875 48.1953125 -6.44921875 48.1953125 C-6.44921875 47.2053125 -6.44921875 46.2153125 -6.44921875 45.1953125 C-5.78921875 45.1953125 -5.12921875 45.1953125 -4.44921875 45.1953125 C-4.44921875 43.8753125 -4.44921875 42.5553125 -4.44921875 41.1953125 C-5.10921875 41.1953125 -5.76921875 41.1953125 -6.44921875 41.1953125 C-6.44921875 40.2053125 -6.44921875 39.2153125 -6.44921875 38.1953125 C-5.78921875 38.1953125 -5.12921875 38.1953125 -4.44921875 38.1953125 C-4.44921875 37.5353125 -4.44921875 36.8753125 -4.44921875 36.1953125 C-5.10921875 36.1953125 -5.76921875 36.1953125 -6.44921875 36.1953125 C-6.44921875 35.5353125 -6.44921875 34.8753125 -6.44921875 34.1953125 C-5.78921875 34.1953125 -5.12921875 34.1953125 -4.44921875 34.1953125 C-4.44921875 33.5353125 -4.44921875 32.8753125 -4.44921875 32.1953125 C-5.10921875 31.8653125 -5.76921875 31.5353125 -6.44921875 31.1953125 C-5.78921875 31.1953125 -5.12921875 31.1953125 -4.44921875 31.1953125 C-4.44921875 28.8853125 -4.44921875 26.5753125 -4.44921875 24.1953125 C-5.10921875 24.1953125 -5.76921875 24.1953125 -6.44921875 24.1953125 C-6.44921875 23.5353125 -6.44921875 22.8753125 -6.44921875 22.1953125 C-5.78921875 22.1953125 -5.12921875 22.1953125 -4.44921875 22.1953125 C-4.44921875 20.2153125 -4.44921875 18.2353125 -4.44921875 16.1953125 C-5.10921875 16.1953125 -5.76921875 16.1953125 -6.44921875 16.1953125 C-5.78255208 13.52864583 -5.11588542 10.86197917 -4.44921875 8.1953125 C-5.10921875 8.1953125 -5.76921875 8.1953125 -6.44921875 8.1953125 C-6.44921875 7.5353125 -6.44921875 6.8753125 -6.44921875 6.1953125 C-5.78921875 6.1953125 -5.12921875 6.1953125 -4.44921875 6.1953125 C-4.44921875 5.2053125 -4.44921875 4.2153125 -4.44921875 3.1953125 C-5.43921875 2.8653125 -6.42921875 2.5353125 -7.44921875 2.1953125 C-4.2960709 0.09321393 -3.58818794 -0.0481636 0 0 Z " fill="#FCFCFC" transform="translate(480.44921875,191.8046875)"/>
<path d="M0 0 C6.0331671 3.53772091 9.1347324 8.40338616 11.375 14.9375 C11.87 15.9275 11.87 15.9275 12.375 16.9375 C12.46539906 18.6023064 12.49255257 20.27073421 12.48852539 21.93798828 C12.48841209 23.49938034 12.48841209 23.49938034 12.48829651 25.09231567 C12.48313522 26.21942963 12.47797394 27.34654358 12.47265625 28.5078125 C12.4712413 29.65917694 12.46982635 30.81054138 12.46836853 31.99679565 C12.46275716 35.68538986 12.4502027 39.37392405 12.4375 43.0625 C12.43248647 45.55859288 12.42792331 48.0546867 12.42382812 50.55078125 C12.41278403 56.67971073 12.39551173 62.80859518 12.375 68.9375 C5.775 68.9375 -0.825 68.9375 -7.625 68.9375 C-7.625 60.6875 -7.625 52.4375 -7.625 43.9375 C-8.615 43.4425 -8.615 43.4425 -9.625 42.9375 C-8.965 42.9375 -8.305 42.9375 -7.625 42.9375 C-7.71263 40.08197056 -7.81959007 37.22931011 -7.9375 34.375 C-7.97133789 33.17520508 -7.97133789 33.17520508 -8.00585938 31.95117188 C-8.24563305 26.61075819 -9.06532194 22.66165643 -11.625 17.9375 C-15.33887818 15.46158122 -18.32082561 15.39842532 -22.625 15.9375 C-26.87450125 17.73173386 -28.62855611 19.83317468 -30.625 23.9375 C-30.94265167 26.58005338 -31.11245876 29.00198959 -31.13671875 31.64453125 C-31.15466995 32.36992599 -31.17262115 33.09532074 -31.19111633 33.84269714 C-31.24502217 36.14507342 -31.27905001 38.44724479 -31.3125 40.75 C-31.34569068 42.31708568 -31.38018196 43.8841444 -31.41601562 45.45117188 C-31.50073659 49.27979957 -31.56764067 53.1083686 -31.625 56.9375 C-30.965 57.2675 -30.305 57.5975 -29.625 57.9375 C-30.285 57.9375 -30.945 57.9375 -31.625 57.9375 C-31.625 60.5775 -31.625 63.2175 -31.625 65.9375 C-30.965 65.9375 -30.305 65.9375 -29.625 65.9375 C-29.625 66.5975 -29.625 67.2575 -29.625 67.9375 C-34.32218718 70.4037586 -38.32651898 69.99091417 -43.4375 69.5625 C-44.61989258 69.47742188 -44.61989258 69.47742188 -45.82617188 69.390625 C-47.75989961 69.24999026 -49.69258595 69.09516112 -51.625 68.9375 C-53.5404367 65.1066266 -52.26613829 59.96129927 -51.94140625 55.73632812 C-51.55935019 49.90764363 -51.86485857 44.32792988 -52.37158203 38.51342773 C-52.79673098 32.51424018 -52.81099808 26.51588295 -52.81030273 20.50463867 C-52.81252992 18.34600212 -52.83089011 16.18784636 -52.84960938 14.02929688 C-52.85253734 12.64323088 -52.85452612 11.25716251 -52.85546875 9.87109375 C-52.85957764 8.63415771 -52.86368652 7.39722168 -52.86791992 6.12280273 C-52.63891204 3.11992251 -52.20814861 1.45398865 -50.625 -1.0625 C-47.68725537 -1.11640357 -44.75049768 -1.1561255 -41.8125 -1.1875 C-40.56243164 -1.21263672 -40.56243164 -1.21263672 -39.28710938 -1.23828125 C-38.48466797 -1.24472656 -37.68222656 -1.25117187 -36.85546875 -1.2578125 C-36.11707764 -1.26828613 -35.37868652 -1.27875977 -34.61791992 -1.28955078 C-32.625 -1.0625 -32.625 -1.0625 -29.625 0.9375 C-27.31988913 0.63015188 -25.54768025 -0.09860099 -23.44140625 -1.08203125 C-16.18768091 -3.60725325 -6.96682592 -3.18483471 0 0 Z " fill="#FCFCFC" transform="translate(709.625,81.0625)"/>
<path d="M0 0 C21.52189646 0.51549453 21.52189646 0.51549453 30 5 C31.95189785 7.4255584 32.34233127 8.89102055 33 12 C32.34 12.33 31.68 12.66 31 13 C31.08378906 13.61488281 31.16757812 14.22976562 31.25390625 14.86328125 C31.40666016 16.07564453 31.40666016 16.07564453 31.5625 17.3125 C31.66691406 18.11300781 31.77132812 18.91351563 31.87890625 19.73828125 C32 22 32 22 31 25 C28.72871455 23.86435728 26.48006794 22.7164007 24.25 21.5 C16.88119824 18.09901457 10.92631544 17.5414401 3 19 C2.34 19.33 1.68 19.66 1 20 C1 21.65 1 23.3 1 25 C6.86762105 27.21064681 12.70330142 29.20742843 18.75 30.875 C25.91706588 33.06257236 30.04493799 35.78360767 33.9375 42.1875 C36.03770686 49.72353639 36.00738199 56.94574121 32.375 63.99609375 C28.05387811 70.29363787 21.93752839 72.93966557 14.65234375 74.54296875 C7.133117 75.48387734 -0.43894544 75.21354443 -8 75 C-8.33 74.34 -8.66 73.68 -9 73 C-11.11015954 71.87293294 -11.11015954 71.87293294 -13.5625 70.875 C-14.38878906 70.52179688 -15.21507812 70.16859375 -16.06640625 69.8046875 C-17.02353516 69.40636719 -17.02353516 69.40636719 -18 69 C-18 68.34 -18 67.68 -18 67 C-18.66 67 -19.32 67 -20 67 C-20 66.01 -20 65.02 -20 64 C-19.34 64 -18.68 64 -18 64 C-18 59.71 -18 55.42 -18 51 C-12.55580866 52.08883827 -12.55580866 52.08883827 -9.4375 53.9375 C-3.51308131 57.0466892 3.35422055 58 10 58 C10 57.34 10 56.68 10 56 C11.32 56 12.64 56 14 56 C14 53.69 14 51.38 14 49 C13.34515625 48.82984375 12.6903125 48.6596875 12.015625 48.484375 C9.0020404 47.68415762 6.00037639 46.8484074 3 46 C1.9584375 45.70996094 0.916875 45.41992188 -0.15625 45.12109375 C-6.46925406 43.21603318 -11.68822908 41.16379751 -16 36 C-16.67870524 34.6727542 -17.3463302 33.33975297 -18 32 C-18.66 31.34 -19.32 30.68 -20 30 C-19.67 29.01 -19.34 28.02 -19 27 C-19.99 26.67 -20.98 26.34 -22 26 C-21.67 25.34 -21.34 24.68 -21 24 C-20.34 24 -19.68 24 -19 24 C-18.938125 22.845 -18.87625 21.69 -18.8125 20.5 C-18.07428237 14.78639778 -15.55878059 10.35598679 -11.32421875 6.45703125 C-7.77849834 3.77612069 -4.32492553 2.16034587 0 1 C0 0.67 0 0.34 0 0 Z " fill="#FCFCFC" transform="translate(536,78)"/>
<path d="M0 0 C0.99 0 1.98 0 3 0 C3 0.66 3 1.32 3 2 C3.66 2 4.32 2 5 2 C5 6.62 5 11.24 5 16 C5.66 16.33 6.32 16.66 7 17 C6.34 17 5.68 17 5 17 C5 17.99 5 18.98 5 20 C5.70511719 19.82597656 6.41023437 19.65195313 7.13671875 19.47265625 C10.20093804 18.96683015 12.73160701 19.10342727 15.8125 19.4375 C16.78832031 19.53933594 17.76414062 19.64117187 18.76953125 19.74609375 C19.50558594 19.82988281 20.24164062 19.91367188 21 20 C22.14077657 23.42232972 22.09815117 26.08673217 22.0625 29.6875 C22.05347656 30.86699219 22.04445313 32.04648438 22.03515625 33.26171875 C22.02355469 34.16535156 22.01195312 35.06898438 22 36 C17.26721187 37.11896042 13.7672585 36.72720892 9 36 C9 36.99 9 37.98 9 39 C7.68 39 6.36 39 5 39 C5.33 49.23 5.66 59.46 6 70 C6.99 70.495 6.99 70.495 8 71 C8 71.66 8 72.32 8 73 C10.64 73 13.28 73 16 73 C16 72.34 16 71.68 16 71 C17.98 71 19.96 71 22 71 C22 71.99 22 72.98 22 74 C22.66 74 23.32 74 24 74 C24 74.66 24 75.32 24 76 C23.34 76 22.68 76 22 76 C22 76.66 22 77.32 22 78 C22.99 78.495 22.99 78.495 24 79 C23.34 79 22.68 79 22 79 C22 79.99 22 80.98 22 82 C22.99 82.495 22.99 82.495 24 83 C23.34 83 22.68 83 22 83 C21.67 84.65 21.34 86.3 21 88 C12.08023753 91.70004962 3.09343151 92.58009774 -6.05859375 89.02734375 C-10.2922858 86.78697955 -12.3512706 84.06910536 -13.7421875 79.6328125 C-15.04902764 73.74308089 -15.93951492 67.81854477 -14 62 C-14.66 62 -15.32 62 -16 62 C-16.20086443 58.28400809 -16.1519437 57.22791555 -14 54 C-14.66 54 -15.32 54 -16 54 C-16 53.34 -16 52.68 -16 52 C-15.34 52 -14.68 52 -14 52 C-14 51.34 -14 50.68 -14 50 C-14.66 50 -15.32 50 -16 50 C-16 49.34 -16 48.68 -16 48 C-15.34 48 -14.68 48 -14 48 C-14 47.34 -14 46.68 -14 46 C-14.66 45.67 -15.32 45.34 -16 45 C-15.34 45 -14.68 45 -14 45 C-14 44.34 -14 43.68 -14 43 C-14.66 43 -15.32 43 -16 43 C-16 42.01 -16 41.02 -16 40 C-15.34 40 -14.68 40 -14 40 C-14 39.34 -14 38.68 -14 38 C-16.93246659 36.5337667 -19.67766743 37.02912611 -22.90625 37.16015625 C-25 37 -25 37 -27 35 C-26.34 35 -25.68 35 -25 35 C-25 34.34 -25 33.68 -25 33 C-25.66 32.67 -26.32 32.34 -27 32 C-26.34 32 -25.68 32 -25 32 C-25.01160156 31.21753906 -25.02320313 30.43507812 -25.03515625 29.62890625 C-25.04417969 28.61699219 -25.05320312 27.60507813 -25.0625 26.5625 C-25.07410156 25.55316406 -25.08570313 24.54382813 -25.09765625 23.50390625 C-25 21 -25 21 -24 20 C-22.31391034 19.92794489 -20.62499341 19.91613932 -18.9375 19.9375 C-18.01839844 19.94652344 -17.09929688 19.95554688 -16.15234375 19.96484375 C-15.44207031 19.97644531 -14.73179687 19.98804688 -14 20 C-14 19.34 -14 18.68 -14 18 C-14.66 17.67 -15.32 17.34 -16 17 C-15.67 16.67 -15.34 16.34 -15 16 C-15.2784375 14.453125 -15.2784375 14.453125 -15.5625 12.875 C-16.06256603 8.44584377 -15.43718316 6.14246911 -14 2 C-9.38 2 -4.76 2 0 2 C0 1.34 0 0.68 0 0 Z " fill="#FCFCFC" transform="translate(601,172)"/>
<path d="M0 0 C0.9075 0.165 1.815 0.33 2.75 0.5 C8.13211171 1.13318961 13.58076984 1 19 1 C19 32.68 19 64.36 19 97 C15.25976998 98.24674334 11.7683914 98.14552755 7.875 98.125 C7.13378906 98.12886719 6.39257812 98.13273437 5.62890625 98.13671875 C0.1266598 98.1266598 0.1266598 98.1266598 -1 97 C-1.17357907 94.2784871 -1.28434143 91.58029536 -1.3515625 88.85546875 C-1.37512314 88.0219136 -1.39868378 87.18835846 -1.42295837 86.32954407 C-1.49665403 83.61565171 -1.56159946 80.90165121 -1.625 78.1875 C-1.64779022 77.27516602 -1.67058044 76.36283203 -1.69406128 75.42285156 C-2.00800791 62.57505832 -2.09624065 49.81758299 -1 37 C-1.66 36.67 -2.32 36.34 -3 36 C-3 35.01 -3 34.02 -3 33 C-2.34 33 -1.68 33 -1 33 C-1.00523682 32.10692139 -1.01047363 31.21384277 -1.01586914 30.29370117 C-1.03291786 26.97826492 -1.04545347 23.6628753 -1.05493164 20.34741211 C-1.05995842 18.91283432 -1.06678079 17.47826164 -1.07543945 16.04370117 C-1.08757752 13.98094418 -1.09324486 11.91825496 -1.09765625 9.85546875 C-1.10289307 8.61434326 -1.10812988 7.37321777 -1.11352539 6.09448242 C-1 3 -1 3 0 0 Z " fill="#FCFCFC" transform="translate(550,163)"/>
<path d="M0 0 C1 1 1 1 1.11352539 2.76586914 C1.10828857 3.51473389 1.10305176 4.26359863 1.09765625 5.03515625 C1.09443359 5.84404297 1.09121094 6.65292969 1.08789062 7.48632812 C1.07532227 8.7615332 1.07532227 8.7615332 1.0625 10.0625 C1.05798828 10.91650391 1.05347656 11.77050781 1.04882812 12.65039062 C1.03700373 14.76695663 1.01906769 16.88348685 1 19 C-2.12081164 20.04027055 -4.06014462 20.00995251 -7.3125 19.875 C-11.98839586 19.85646937 -15.18052808 20.03990926 -19 23 C-22.02084652 28.61260843 -22.46491229 33.34770939 -22.51171875 39.65234375 C-22.52966995 40.55247696 -22.54762115 41.45261017 -22.56611633 42.38002014 C-22.61995245 45.23246691 -22.65402888 48.08474893 -22.6875 50.9375 C-22.72069668 52.88088217 -22.7551885 54.82424267 -22.79101562 56.76757812 C-22.87808302 61.51173896 -22.93837881 66.25516862 -23 71 C-29.27 71 -35.54 71 -42 71 C-43.07943259 67.76170223 -43.0999971 65.39973665 -43.0625 62 C-43.05347656 60.948125 -43.04445313 59.89625 -43.03515625 58.8125 C-43.02355469 57.884375 -43.01195312 56.95625 -43 56 C-43 53.33115556 -43.00688839 50.66247848 -43.01586914 47.99365234 C-43.03379495 42.34212783 -43.04539542 36.69060695 -43.05493164 31.0390625 C-43.05998462 28.5927691 -43.06682578 26.14647876 -43.07543945 23.70019531 C-43.08750431 20.18293515 -43.09322643 16.6657145 -43.09765625 13.1484375 C-43.10281754 12.0474472 -43.10797882 10.94645691 -43.11329651 9.81210327 C-43.11337204 8.80080353 -43.11344757 7.78950378 -43.11352539 6.74755859 C-43.115746 5.8528183 -43.11796661 4.958078 -43.12025452 4.03622437 C-43 2 -43 2 -42 1 C-39.14122091 0.76298761 -36.30116703 0.57780818 -33.4375 0.4375 C-32.22803711 0.37272461 -32.22803711 0.37272461 -30.99414062 0.30664062 C-28.99631195 0.20024738 -26.9981793 0.09959112 -25 0 C-24.34 1.32 -23.68 2.64 -23 4 C-19.50366159 3.54885956 -16.85446678 2.45169941 -13.75 0.875 C-8.97742596 -1.34312585 -5.05974815 -1.32140744 0 0 Z M-23 5 C-22.67 5.66 -22.34 6.32 -22 7 C-21.67 6.34 -21.34 5.68 -21 5 C-21.66 5 -22.32 5 -23 5 Z " fill="#FCFCFC" transform="translate(513,79)"/>
<path d="M0 0 C0.99 0.33 1.98 0.66 3 1 C2.34 1 1.68 1 1 1 C1 1.99 1 2.98 1 4 C0.34 4 -0.32 4 -1 4 C-0.67 2.68 -0.34 1.36 0 0 Z " fill="#FAFAFA" transform="translate(218,235)"/>
<path d="M0 0 C4 1 4 1 4 1 Z " fill="#FBFBFB" transform="translate(502,264)"/>
<path d="M0 0 C4 1 4 1 4 1 Z " fill="#FBFBFB" transform="translate(492,264)"/>
<path d="M0 0 C4 1 4 1 4 1 Z " fill="#FBFBFB" transform="translate(426,264)"/>
<path d="M0 0 C0.66 0 1.32 0 2 0 C2 0.66 2 1.32 2 2 C1.34 2 0.68 2 0 2 C0 1.34 0 0.68 0 0 Z " fill="#FBFBFB" transform="translate(321,172)"/>
<path d="M0 0 C4 1 4 1 4 1 Z " fill="#FBFBFB" transform="translate(545,96)"/>
<path d="M0 0 C0.66 0.66 1.32 1.32 2 2 C1.34 2 0.68 2 0 2 C0 1.34 0 0.68 0 0 Z " fill="#FAFAFA" transform="translate(51,247)"/>
<path d="M0 0 C0.66 0.66 1.32 1.32 2 2 C1.34 2 0.68 2 0 2 C0 1.34 0 0.68 0 0 Z " fill="#FAFAFA" transform="translate(76,216)"/>
<path d="M0 0 C3 1 3 1 3 1 Z " fill="#FBFBFB" transform="translate(617,210)"/>
<path d="M0 0 C0.66 0.66 1.32 1.32 2 2 C1.34 2 0.68 2 0 2 C0 1.34 0 0.68 0 0 Z " fill="#FBFBFB" transform="translate(421,187)"/>
<path d="M0 0 C3 1 3 1 3 1 Z " fill="#FBFBFB" transform="translate(521,150)"/>
<path d="M0 0 C3 1 3 1 3 1 Z " fill="#FBFBFB" transform="translate(765,122)"/>
<path d="M0 0 C0.33 0.66 0.66 1.32 1 2 C0.34 1.67 -0.32 1.34 -1 1 C-0.67 0.67 -0.34 0.34 0 0 Z " fill="#FAFAFA" transform="translate(19,117)"/>
<path d="M0 0 C2 1 2 1 2 1 Z " fill="#FAFAFA" transform="translate(127,289)"/>
<path d="M0 0 C2 1 2 1 2 1 Z " fill="#FBFBFB" transform="translate(489,266)"/>
<path d="M0 0 C2 1 2 1 2 1 Z " fill="#FBFBFB" transform="translate(608,264)"/>
<path d="M0 0 C2 1 2 1 2 1 Z " fill="#FBFBFB" transform="translate(498,264)"/>
<path d="M0 0 C2 1 2 1 2 1 Z " fill="#FCFCFC" transform="translate(509,243)"/>
<path d="M0 0 C2 1 2 1 2 1 Z " fill="#FAFAFA" transform="translate(45,242)"/>
<path d="M0 0 C2 1 2 1 2 1 Z " fill="#FBFBFB" transform="translate(443,234)"/>
<path d="M0 0 C2 1 2 1 2 1 Z " fill="#FBFBFB" transform="translate(429,234)"/>
<path d="M0 0 C2 1 2 1 2 1 Z " fill="#FBFBFB" transform="translate(431,233)"/>
<path d="M0 0 C2 1 2 1 2 1 Z " fill="#FBFBFB" transform="translate(442,232)"/>
<path d="M0 0 C2 1 2 1 2 1 Z " fill="#FAFAFA" transform="translate(225,229)"/>
<path d="M0 0 C2 1 2 1 2 1 Z " fill="#FBFBFB" transform="translate(369,221)"/>
<path d="M0 0 C2 1 2 1 2 1 Z " fill="#FBFBFB" transform="translate(417,219)"/>
<path d="M0 0 C2 1 2 1 2 1 Z " fill="#FAFAFA" transform="translate(214,218)"/>
<path d="M0 0 C2 1 2 1 2 1 Z " fill="#FAFAFA" transform="translate(90,217)"/>
<path d="M0 0 C2 1 2 1 2 1 Z " fill="#FBFBFB" transform="translate(545,214)"/>
<path d="M0 0 C2 1 2 1 2 1 Z " fill="#FAFAFA" transform="translate(27,214)"/>
<path d="M0 0 C2 1 2 1 2 1 Z " fill="#FAFAFA" transform="translate(26,211)"/>
<path d="M0 0 C2 1 2 1 2 1 Z " fill="#FBFBFB" transform="translate(426,208)"/>
<path d="M0 0 C2 1 2 1 2 1 Z " fill="#FBFBFB" transform="translate(377,196)"/>
<path d="M0 0 C2 1 2 1 2 1 Z " fill="#FAFAFA" transform="translate(177,185)"/>
<path d="M0 0 C2 1 2 1 2 1 Z " fill="#FBFBFB" transform="translate(385,179)"/>
<path d="M0 0 C2 1 2 1 2 1 Z " fill="#FAFAFA" transform="translate(114,163)"/>
<path d="M0 0 C2 1 2 1 2 1 Z " fill="#FBFBFB" transform="translate(747,154)"/>
<path d="M0 0 C2 1 2 1 2 1 Z " fill="#FBFBFB" transform="translate(550,153)"/>
<path d="M0 0 C2 1 2 1 2 1 Z " fill="#FBFBFB" transform="translate(418,152)"/>
<path d="M0 0 C2 1 2 1 2 1 Z " fill="#FBFBFB" transform="translate(663,151)"/>
<path d="M0 0 C2 1 2 1 2 1 Z " fill="#FBFBFB" transform="translate(415,151)"/>
<path d="M0 0 C2 1 2 1 2 1 Z " fill="#FBFBFB" transform="translate(594,150)"/>
<path d="M0 0 C2 1 2 1 2 1 Z " fill="#FAFAFA" transform="translate(66,136)"/>
<path d="M0 0 C2 1 2 1 2 1 Z " fill="#FAFAFA" transform="translate(169,132)"/>
<path d="M0 0 C2 1 2 1 2 1 Z " fill="#FBFBFB" transform="translate(729,117)"/>
<path d="M0 0 C2 1 2 1 2 1 Z " fill="#FBFBFB" transform="translate(494,102)"/>
<path d="M0 0 C2 1 2 1 2 1 Z " fill="#FBFBFB" transform="translate(749,98)"/>
<path d="M0 0 C2 1 2 1 2 1 Z " fill="#FBFBFB" transform="translate(605,98)"/>
<path d="M0 0 C2 1 2 1 2 1 Z " fill="#FBFBFB" transform="translate(761,97)"/>
<path d="M0 0 C2 1 2 1 2 1 Z " fill="#FBFBFB" transform="translate(693,97)"/>
<path d="M0 0 C2 1 2 1 2 1 Z " fill="#FBFBFB" transform="translate(610,97)"/>
<path d="M0 0 C2 1 2 1 2 1 Z " fill="#FBFBFB" transform="translate(541,97)"/>
<path d="M0 0 C2 1 2 1 2 1 Z " fill="#FBFBFB" transform="translate(579,92)"/>
<path d="M0 0 C2 1 2 1 2 1 Z " fill="#FBFBFB" transform="translate(369,92)"/>
<path d="M0 0 C2 1 2 1 2 1 Z " fill="#FBFBFB" transform="translate(482,77)"/>
<path d="M0 0 C2 1 2 1 2 1 Z " fill="#FAFAFA" transform="translate(225,76)"/>
<path d="M0 0 C2 1 2 1 2 1 Z " fill="#FAFAFA" transform="translate(133,59)"/>
<path d="M0 0 C2 1 2 1 2 1 Z " fill="#FAFAFA" transform="translate(187,50)"/>
<path d="M0 0 C2 1 2 1 2 1 Z " fill="#FAFAFA" transform="translate(184,49)"/>
<path d="M0 0 C2 1 2 1 2 1 Z " fill="#FAFAFA" transform="translate(224,36)"/>
<path d="M0 0 C2 1 2 1 2 1 Z " fill="#FAFAFA" transform="translate(91,27)"/>
<path d="" fill="#FAFAFA" transform="translate(0,0)"/>
<path d="" fill="#FAFAFA" transform="translate(0,0)"/>
<path d="" fill="#FBFBFB" transform="translate(0,0)"/>
<path d="" fill="#FAFAFA" transform="translate(0,0)"/>
<path d="" fill="#FBFBFB" transform="translate(0,0)"/>
<path d="" fill="#FBFBFB" transform="translate(0,0)"/>
<path d="" fill="#FBFBFB" transform="translate(0,0)"/>
<path d="" fill="#FBFBFB" transform="translate(0,0)"/>
<path d="" fill="#FBFBFB" transform="translate(0,0)"/>
<path d="" fill="#FBFBFB" transform="translate(0,0)"/>
<path d="" fill="#FBFBFB" transform="translate(0,0)"/>
</svg>
