<?xml version="1.0" standalone="no"?>
<!DOCTYPE svg PUBLIC "-//W3C//DTD SVG 20010904//EN"
 "http://www.w3.org/TR/2001/REC-SVG-20010904/DTD/svg10.dtd">
<svg version="1.0" xmlns="http://www.w3.org/2000/svg"
 width="800.000000pt" height="311.000000pt" viewBox="0 0 800.000000 311.000000"
 preserveAspectRatio="xMidYMid meet">

<g transform="translate(0.000000,311.000000) scale(0.100000,-0.100000)"
fill="#000000" stroke="none">
<path d="M1335 2909 c-234 -32 -427 -110 -610 -247 -384 -287 -586 -751 -536
-1235 34 -331 175 -616 417 -847 185 -177 386 -280 654 -337 101 -21 368 -24
470 -4 239 45 460 153 633 310 224 203 357 427 425 714 24 101 26 131 26 307
1 151 -3 214 -17 278 -118 540 -526 948 -1049 1047 -103 19 -321 27 -413 14z
m300 -219 c171 -25 327 -80 453 -162 327 -213 512 -559 512 -958 0 -513 -312
-941 -796 -1093 -232 -73 -504 -54 -744 51 -442 195 -705 671 -651 1175 29
264 137 493 321 677 242 243 575 357 905 310z"/>
<path d="M1420 2518 c-62 -32 -98 -82 -110 -151 -5 -32 -11 -61 -15 -66 -5
-10 -273 -189 -313 -210 -19 -10 -32 -10 -69 3 -63 22 -108 20 -161 -5 -135
-66 -144 -280 -15 -369 l33 -23 0 -168 0 -168 -30 -18 c-62 -36 -108 -141 -93
-215 14 -76 59 -135 125 -163 47 -19 92 -19 151 1 l46 16 110 -79 c60 -43 136
-97 169 -119 57 -40 59 -43 60 -88 3 -81 51 -150 124 -181 62 -25 129 -16 192
28 36 26 76 110 76 163 0 40 1 42 88 99 48 32 125 85 171 118 l85 60 49 -18
c93 -33 187 0 244 87 24 36 28 52 28 112 0 84 -20 126 -82 171 l-42 30 0 161
-1 162 46 37 c55 45 83 102 84 166 0 94 -38 160 -114 195 -60 28 -104 30 -166
8 l-45 -16 -173 112 -172 113 0 41 c-1 144 -152 239 -280 174z m-14 -364 l34
-26 0 -157 c0 -86 -3 -165 -6 -176 -3 -11 -24 -32 -47 -47 -23 -15 -49 -33
-58 -39 -13 -10 -39 3 -148 74 -72 48 -134 92 -136 99 -3 7 -6 29 -7 48 -3 34
-1 36 152 141 85 59 161 107 168 108 7 1 29 -11 48 -25z m401 -81 c83 -56 154
-107 158 -113 4 -6 4 -29 0 -51 -7 -38 -13 -44 -120 -114 -162 -105 -150 -101
-187 -70 -17 14 -43 32 -59 41 l-29 15 0 173 0 173 38 26 c20 14 39 25 42 24
3 -1 73 -48 157 -104z m262 -350 l41 -27 -2 -164 -3 -163 -45 -26 -46 -26
-132 86 -132 86 0 43 0 43 133 87 c72 48 135 88 139 88 3 0 25 -12 47 -27z
m-942 -64 l123 -82 0 -47 0 -47 -125 -83 -126 -83 -49 24 -50 24 3 165 2 164
34 23 c19 13 41 23 50 23 8 0 71 -37 138 -81z m258 -340 l55 -42 0 -178 0
-178 -36 -25 -37 -25 -163 112 -164 111 0 42 c0 37 5 46 38 72 57 45 225 152
239 152 7 0 37 -19 68 -41z m445 -45 c126 -84 128 -86 132 -127 3 -23 3 -45 1
-49 -6 -12 -313 -218 -324 -218 -6 0 -24 9 -40 21 l-29 20 0 182 1 182 52 37
c29 20 58 37 65 37 8 1 71 -38 142 -85z"/>
<path d="M3280 2095 l0 -475 90 0 90 0 0 164 0 163 118 5 c142 7 211 29 274
91 67 65 91 125 91 228 0 74 -3 93 -29 144 -19 38 -45 71 -72 92 -72 54 -119
63 -354 63 l-208 0 0 -475z m405 305 c46 -24 75 -74 75 -134 0 -112 -58 -158
-207 -164 l-93 -4 0 162 0 162 98 -4 c59 -2 109 -9 127 -18z"/>
<path d="M5393 2300 c-127 -14 -203 -94 -203 -213 0 -111 46 -158 197 -202
131 -38 167 -73 125 -125 -36 -44 -159 -38 -263 15 l-47 23 -4 -71 c-3 -45 -1
-76 6 -83 6 -7 36 -20 66 -30 66 -23 225 -25 284 -5 154 53 196 272 68 355
-20 14 -82 37 -137 52 -93 26 -145 56 -145 82 0 22 38 54 74 62 46 10 127 -2
192 -31 25 -10 48 -19 50 -19 2 0 4 33 4 74 l0 74 -38 15 c-35 14 -78 24 -142
31 -14 2 -53 0 -87 -4z"/>
<path d="M4143 2270 c-68 -34 -109 -79 -145 -156 -20 -42 -23 -66 -23 -169 0
-111 2 -124 28 -177 43 -89 115 -142 226 -168 94 -22 254 3 303 47 14 12 18
31 18 84 l0 68 -65 -30 c-115 -54 -235 -48 -293 14 -26 27 -55 94 -47 107 4 6
99 10 232 10 l226 0 -6 94 c-8 144 -51 227 -140 273 -44 23 -68 27 -152 31
-96 3 -103 2 -162 -28z m236 -127 c30 -23 48 -56 53 -98 l3 -30 -147 -3 c-161
-3 -159 -4 -137 55 14 37 47 72 84 89 39 18 110 12 144 -13z"/>
<path d="M4973 2279 c-23 -11 -49 -31 -58 -45 -23 -35 -37 -30 -33 14 l3 37
-83 3 -82 3 0 -336 0 -335 85 0 85 0 0 208 c0 188 2 210 20 239 29 49 64 66
144 72 l71 6 3 78 3 77 -58 0 c-39 0 -72 -7 -100 -21z"/>
<path d="M6004 2289 c-53 -15 -127 -72 -162 -123 -48 -72 -65 -142 -60 -245 7
-149 76 -255 196 -302 86 -34 227 -33 302 3 70 32 126 88 159 158 23 49 26 67
26 170 0 106 -2 120 -28 172 -36 74 -112 143 -180 163 -56 16 -202 19 -253 4z
m207 -152 c74 -49 101 -131 81 -245 -13 -79 -46 -124 -106 -147 -140 -54 -263
93 -226 268 19 96 78 147 166 147 37 0 61 -6 85 -23z"/>
<path d="M6865 2286 c-16 -7 -44 -25 -61 -39 -18 -15 -35 -27 -38 -27 -3 0 -6
16 -6 35 l0 35 -80 0 -80 0 0 -335 0 -335 85 0 85 0 0 220 c0 253 4 269 73
301 51 23 77 24 123 4 58 -24 64 -52 64 -305 l0 -220 86 0 85 0 -3 258 -3 258
-30 59 c-41 80 -88 105 -194 105 -42 -1 -89 -7 -106 -14z"/>
<path d="M7464 2281 c-92 -33 -94 -36 -94 -123 l0 -78 67 37 c62 34 75 38 146
38 76 0 80 -1 108 -33 21 -24 29 -42 29 -71 l0 -39 -97 0 c-218 -2 -323 -83
-310 -238 6 -76 36 -123 99 -155 87 -44 218 -27 278 36 31 33 40 32 40 -5 l0
-30 80 0 80 0 0 232 c0 192 -3 241 -17 287 -22 69 -73 122 -138 145 -66 22
-204 20 -271 -3z m245 -380 c19 -12 9 -96 -15 -123 -44 -49 -142 -63 -188 -27
-35 28 -36 86 -3 118 35 32 172 54 206 32z"/>
<path d="M5619 1456 c-2 -3 -27 -6 -54 -8 l-50 -3 -3 -468 -2 -467 80 0 80 0
0 475 0 475 -23 0 c-13 0 -26 -2 -28 -4z"/>
<path d="M3254 1414 c8 -31 136 -380 259 -704 l74 -195 93 0 94 0 157 420 c86
231 164 437 172 458 l16 37 -92 0 -92 0 -58 -162 c-31 -90 -86 -244 -120 -343
-35 -99 -68 -179 -72 -178 -5 1 -37 82 -72 180 -34 98 -88 251 -120 341 l-58
162 -76 0 c-43 0 -85 3 -95 7 -15 5 -16 2 -10 -23z"/>
<path d="M5880 1260 l0 -90 -55 0 -55 0 0 -65 0 -65 33 0 c80 0 75 14 79 -230
3 -239 5 -244 70 -293 48 -36 236 -32 260 6 4 7 8 38 8 69 l0 57 -62 -5 c-57
-6 -65 -4 -85 18 -21 22 -22 34 -25 196 -2 109 1 173 7 174 14 2 52 4 108 6
l47 2 0 65 0 64 -82 3 -83 3 2 88 3 87 -85 0 -85 0 0 -90z"/>
<path d="M4247 1190 c-20 -5 -60 -21 -87 -35 l-50 -25 0 -75 c0 -41 2 -75 5
-75 3 0 32 15 66 32 117 61 243 49 275 -27 29 -70 24 -75 -69 -75 -156 0 -258
-44 -305 -130 -31 -59 -27 -152 9 -205 67 -99 235 -114 345 -30 41 32 44 31
44 -5 l0 -30 81 0 81 0 -4 253 -3 253 -30 60 c-26 50 -38 63 -87 88 -47 24
-71 29 -145 32 -48 2 -105 -1 -126 -6z m221 -427 c6 -84 -45 -133 -138 -133
-41 0 -56 5 -75 25 -69 68 21 157 155 152 l55 -2 3 -42z"/>
<path d="M4772 908 c3 -242 5 -267 24 -308 37 -79 92 -109 204 -109 74 -1 131
21 170 64 l25 27 5 -34 5 -33 80 0 80 0 3 328 2 327 -85 0 -85 0 0 -210 c0
-236 -6 -266 -62 -300 -39 -23 -98 -26 -137 -5 -52 27 -61 70 -61 305 l0 210
-86 0 -86 0 4 -262z"/>
</g>
</svg>
